<?xml version="1.0" encoding="UTF-8"?>
<svg version="1.1" xmlns="http://www.w3.org/2000/svg" width="1024" height="1024">
<path d="M0 0 C337.92 0 675.84 0 1024 0 C1024 337.92 1024 675.84 1024 1024 C686.08 1024 348.16 1024 0 1024 C0 686.08 0 348.16 0 0 Z " fill="#F6F3EF" transform="translate(0,0)"/>
<path d="M0 0 C3.47862698 -0.03999233 6.95727468 -0.06802908 10.43603992 -0.09282017 C12.01976616 -0.10673088 13.60345665 -0.12584428 15.18705082 -0.1505785 C17.33098183 -0.18342784 19.47426522 -0.19776089 21.61840725 -0.20746136 C22.80379589 -0.22038723 23.98918453 -0.2333131 25.21049404 -0.24663067 C28.68494934 0.14036014 30.55019319 1.01757392 33.33056545 3.10088825 C34.93168444 6.30312623 34.82883689 9.6262754 34.33056545 13.10088825 C32.45556545 16.10088825 32.45556545 16.10088825 30.33056545 18.10088825 C29.67056545 18.10088825 29.01056545 18.10088825 28.33056545 18.10088825 C28.73901352 37.79569049 28.73901352 37.79569049 32.33056545 57.10088825 C32.6347842 58.23397419 32.93900295 59.36706013 33.25244045 60.534482 C38.79322807 78.86324685 48.35711706 95.85822481 58.33056545 112.10088825 C73.52135674 136.94588443 88.11394367 161.23793283 95.14306545 189.72588825 C95.33827785 190.51173298 95.53349026 191.29757771 95.73461819 192.10723591 C99.77553543 209.70172857 99.63350375 227.42790448 99.62133288 245.37129879 C99.6209201 249.17778278 99.63200688 252.98423764 99.64144802 256.79070759 C99.65795682 264.22501966 99.66355284 271.6593 99.66467278 279.09362888 C99.66562756 285.14142268 99.66975915 291.18920613 99.67607403 297.23699665 C99.69365449 314.42643103 99.70291727 331.61584059 99.70141308 348.80528402 C99.70129321 350.19104171 99.70129321 350.19104171 99.70117092 351.6047945 C99.70108916 352.52977474 99.7010074 353.45475497 99.70092316 354.40776491 C99.70010993 369.40405056 99.71926525 384.40023586 99.74744765 399.39649248 C99.77623269 414.83647932 99.78998504 430.27641729 99.7882601 445.71643162 C99.78759841 454.36818664 99.79299419 463.01983627 99.8146162 471.67156696 C99.83290164 479.03455928 99.83711486 486.39739834 99.82359736 493.76040363 C99.81710619 497.50947847 99.81680953 501.25825991 99.83430386 505.0073061 C99.99236702 541.12882932 99.99236702 541.12882932 91.45556545 556.72588825 C91.11331936 557.3826656 90.77107327 558.03944294 90.41845608 558.71612263 C87.89134137 563.42681503 85.10040675 567.33104696 81.33056545 571.10088825 C83.77222716 572.3217191 85.41747351 572.25819568 88.14745998 572.30621052 C89.14834652 572.32615574 90.14923306 572.34610096 91.18044949 572.36665058 C92.26381588 572.38336308 93.34718227 572.40007557 94.46337795 572.4172945 C95.5703503 572.4380756 96.67732265 572.4588567 97.81783962 572.48026752 C101.36368344 572.54579817 104.90960299 572.60466439 108.45556545 572.66338825 C110.85531296 572.70657012 113.25505272 572.7501843 115.6547842 572.79424763 C121.5466347 572.90229886 127.43854037 573.00134649 133.33056545 573.10088825 C133.33056545 581.02088825 133.33056545 588.94088825 133.33056545 597.10088825 C-108.88943455 597.10088825 -351.10943455 597.10088825 -600.66943455 597.10088825 C-600.66943455 573.10088825 -600.66943455 573.10088825 -599.66943455 572.10088825 C-597.14849378 572.01241082 -594.65512562 571.98561524 -592.1342783 572.003232 C-591.38102772 572.00464695 -590.62777714 572.0060619 -589.85170078 572.00751972 C-587.43673895 572.01313449 -585.02186854 572.02568942 -582.60693455 572.03838825 C-580.97347234 572.04340135 -579.34000869 572.04796459 -577.70654392 572.05206013 C-573.6941387 572.06310872 -569.68180214 572.08038319 -565.66943455 572.10088825 C-565.67626951 571.48372954 -565.68310448 570.86657082 -565.69014657 570.23071033 C-566.09328443 533.62200271 -566.40195672 497.01362433 -566.58861048 460.40315007 C-566.61112218 456.00364565 -566.63442008 451.60414573 -566.65820408 447.20464802 C-566.66292567 446.32881731 -566.66764725 445.4529866 -566.67251192 444.55061557 C-566.75075684 430.38407132 -566.8926311 416.21884689 -567.05818488 402.05308465 C-567.22674088 387.50871469 -567.32653915 372.96503404 -567.36302745 358.4197275 C-567.38768225 349.44943943 -567.46541826 340.48288166 -567.61193095 331.51374271 C-567.70736764 325.35624708 -567.73577616 319.20066838 -567.71245934 313.04248754 C-567.7009664 309.49208133 -567.7180615 305.94816869 -567.81513309 302.39893055 C-568.35314797 281.72518981 -568.35314797 281.72518981 -563.89341593 275.70241046 C-559.68773475 271.63249948 -554.98483042 268.773853 -549.76896834 266.17456281 C-547.03991833 264.77896176 -544.62347403 263.05482242 -542.16943455 261.22588825 C-540.67022763 260.18308048 -539.17024728 259.1413836 -537.66943455 258.10088825 C-531.26772727 253.64337079 -524.9146325 249.12788509 -518.60693455 244.53838825 C-511.60066826 239.44341588 -504.48965142 234.52066396 -497.3242197 229.65264606 C-491.34859573 225.58696444 -485.46930554 221.4149496 -479.66943455 217.10088825 C-459.46421325 227.06425924 -439.49113868 237.47526213 -419.74755955 248.3235445 C-412.43485775 252.33712509 -405.05437988 256.2223228 -397.66943455 260.10088825 C-397.68090015 259.25980518 -397.69236576 258.41872211 -397.70417881 257.55215168 C-397.78655177 246.42915072 -397.27059104 235.37004152 -396.6811533 224.26495075 C-396.576778 222.24243291 -396.47278872 220.21989512 -396.36915684 218.19733906 C-396.14932461 213.91877202 -395.92732671 209.64032565 -395.70349216 205.36196613 C-395.17824473 195.31918659 -394.66387728 185.27584807 -394.14976215 175.2324934 C-394.03519158 172.99473053 -393.92048853 170.75697444 -393.80565357 168.51922512 C-392.64157768 145.8238111 -391.57656011 123.12460728 -390.57055759 100.42168903 C-390.51560627 99.19514103 -390.46065495 97.96859303 -390.40403843 96.7048769 C-390.30511148 94.49309033 -390.20771364 92.28123437 -390.11244297 90.0692873 C-389.76916249 82.39452489 -389.21738866 74.77224578 -388.66943455 67.10088825 C-373.81943455 67.10088825 -358.96943455 67.10088825 -343.66943455 67.10088825 C-343.01061946 70.39496368 -342.52810275 73.08589344 -342.37954807 76.35622883 C-342.3404441 77.17540979 -342.30134012 77.99459076 -342.26105118 78.83859539 C-342.20337429 80.16895038 -342.20337429 80.16895038 -342.1445322 81.52618122 C-342.07830898 82.94704501 -342.07830898 82.94704501 -342.01074791 84.39661312 C-341.86481435 87.54528299 -341.72422269 90.69416918 -341.58349705 93.84307575 C-341.48127048 96.06489543 -341.37864758 98.28669691 -341.27565098 100.50848103 C-341.05770348 105.22219837 -340.84186385 109.93600518 -340.62777805 114.64989948 C-340.07618959 126.79021653 -339.51207081 138.92995272 -338.9467783 151.06963825 C-338.89151037 152.25885254 -338.83624245 153.44806683 -338.77929974 154.67331791 C-337.79860734 175.74471822 -336.71919649 196.80799073 -335.48242283 217.86602497 C-334.95447943 226.9532577 -334.46551892 235.99265681 -334.66943455 245.10088825 C-335.21881687 244.83872517 -335.7681992 244.57656208 -336.33422947 244.30645466 C-338.84103628 243.11132757 -341.34897206 241.91858814 -343.85693455 240.72588825 C-344.72125095 240.31338825 -345.58556736 239.90088825 -346.47607517 239.47588825 C-347.31718845 239.07627888 -348.15830173 238.6766695 -349.0249033 238.26495075 C-349.79471531 237.8983736 -350.56452732 237.53179646 -351.35766697 237.15411091 C-353.76119145 236.05908455 -356.21712869 235.08181059 -358.66943455 234.10088825 C-358.33943455 249.94088825 -358.00943455 265.78088825 -357.66943455 282.10088825 C-354.03943455 283.75088825 -350.40943455 285.40088825 -346.66943455 287.10088825 C-346.66943455 275.55088825 -346.66943455 264.00088825 -346.66943455 252.10088825 C-327.54374003 261.56905385 -308.5744078 271.33971134 -289.87793064 281.63116169 C-281.97701683 285.96739698 -273.98374429 290.11421886 -265.97656345 294.25005817 C-259.2408884 297.73837964 -252.56296715 301.31546697 -245.91943455 304.97588825 C-235.92428556 310.48114844 -225.80602428 315.73233336 -215.65283298 320.9382906 C-214.48655369 321.53722126 -213.32027439 322.13615192 -212.1186533 322.753232 C-211.09086765 323.27908894 -210.06308201 323.80494587 -209.00415134 324.34673786 C-204.85549953 326.52903988 -200.76714914 328.82438015 -196.66943455 331.10088825 C-196.66943455 361.13088825 -196.66943455 391.16088825 -196.66943455 422.10088825 C-208.50043894 419.61015048 -220.2840712 417.08442865 -232.03662205 414.27276325 C-233.53181363 413.91642906 -235.02702285 413.56016886 -236.52224827 413.20397663 C-239.63001341 412.46292459 -242.73728019 411.71982404 -245.84423923 410.97539997 C-248.9589767 410.22938556 -252.07451894 409.48689923 -255.19091892 408.74786091 C-259.78674786 407.65792967 -264.38094591 406.56131811 -268.97412205 405.46026325 C-269.72199734 405.28137058 -270.46987263 405.10247791 -271.2404108 404.91816425 C-279.23863398 402.99892427 -287.19906979 400.99751022 -295.10791111 398.73565388 C-295.77623777 398.54549324 -296.44456444 398.3553326 -297.13314342 398.15940952 C-300.26062276 397.2663601 -303.38050117 396.35436144 -306.49362278 395.41235065 C-316.00288558 392.64408442 -322.54787506 393.62337863 -331.95068455 396.1829195 C-333.13784313 396.49856358 -333.13784313 396.49856358 -334.34898472 396.8205843 C-336.06181258 397.27615302 -337.77407156 397.733865 -339.48581028 398.1935091 C-344.12817262 399.43881751 -348.77572501 400.66441901 -353.4233408 401.88995075 C-354.40182484 402.14816105 -355.38030888 402.40637135 -356.38844395 402.6724062 C-367.20073735 405.51744829 -378.03787574 408.26249272 -388.88281345 410.9801302 C-391.03014208 411.5184461 -393.17711637 412.05817747 -395.32373142 412.59933186 C-398.33257976 413.35747538 -401.34258539 414.11082365 -404.3530283 414.862607 C-405.70484447 415.20399204 -405.70484447 415.20399204 -407.08397007 415.55227375 C-408.32401546 415.85997196 -408.32401546 415.85997196 -409.58911228 416.1738863 C-410.30848469 416.35388676 -411.02785709 416.53388721 -411.76902866 416.71934223 C-413.66943455 417.10088825 -413.66943455 417.10088825 -416.66943455 417.10088825 C-416.66943455 421.39088825 -416.66943455 425.68088825 -416.66943455 430.10088825 C-415.04680195 429.6447263 -415.04680195 429.6447263 -413.39138889 429.17934895 C-396.98891994 424.58535254 -380.50115511 420.34118804 -363.99853611 416.12383747 C-360.34257609 415.18866247 -356.68880692 414.24552171 -353.03662205 413.29571247 C-348.57756826 412.13616039 -344.11512935 410.99063685 -339.64993763 409.85495853 C-337.96388064 409.4236591 -336.27905732 408.98750472 -334.59557819 408.54625034 C-332.24824003 407.93203364 -329.89695931 407.33600032 -327.54394627 406.74395466 C-326.52144527 406.46982243 -326.52144527 406.46982243 -325.4782877 406.19015217 C-318.9841076 404.59402547 -313.36885261 405.53725804 -306.95800877 407.17315388 C-306.1187888 407.38462559 -305.27956882 407.5960973 -304.41491795 407.81397724 C-303.08297398 408.15709194 -303.08297398 408.15709194 -301.72412205 408.50713825 C-300.77347874 408.7476038 -299.82283543 408.98806934 -298.84338474 409.23582172 C-296.8038536 409.75193418 -294.76482449 410.27003392 -292.72625828 410.78994465 C-287.3039405 412.17191747 -281.87732981 413.53680518 -276.45068455 414.9016695 C-275.35960392 415.17630527 -274.26852329 415.45094105 -273.14437962 415.73389912 C-263.46290766 418.16502913 -253.7615011 420.50412488 -244.04443455 422.78838825 C-243.29209538 422.96531208 -242.5397562 423.14223591 -241.76461887 423.32452106 C-238.73896184 424.03553239 -235.71310383 424.74567594 -232.68687534 425.45425129 C-226.80471539 426.83188455 -220.9259999 428.22371673 -215.0483408 429.6204195 C-213.7312009 429.93326138 -213.7312009 429.93326138 -212.38745213 430.25242329 C-208.9609893 431.06630357 -205.5345409 431.8802427 -202.10833836 432.69521809 C-199.78384745 433.24793661 -197.45909386 433.79953715 -195.1342783 434.35088825 C-194.4496703 434.51397984 -193.76506229 434.67707142 -193.0597086 434.84510517 C-189.60694612 435.66295702 -186.15049104 436.41480175 -182.66943455 437.10088825 C-182.67081724 436.12368887 -182.67081724 436.12368887 -182.67222786 435.12674809 C-182.86340548 297.69250578 -182.86340548 297.69250578 -182.38029194 254.12202168 C-182.35726497 251.88301659 -182.33945218 249.64402955 -182.32327366 247.4049654 C-181.97491937 201.57680793 -172.73517862 164.2170039 -147.39868259 125.88848591 C-133.20663296 104.34213213 -120.18015731 81.23338163 -113.66943455 56.10088825 C-113.3652158 55.01936481 -113.06099705 53.93784138 -112.74755955 52.8235445 C-109.96012819 41.76585691 -109.93487216 30.4487126 -109.66943455 19.10088825 C-110.45318455 18.83276325 -111.23693455 18.56463825 -112.04443455 18.28838825 C-114.66943455 17.10088825 -114.66943455 17.10088825 -116.66943455 14.10088825 C-117.13741037 9.88910582 -117.1350925 7.81489711 -114.79443455 4.22588825 C-110.84915682 0.28061053 -106.95898248 0.9298525 -101.66626072 0.89556599 C-100.26267559 0.88071659 -100.26267559 0.88071659 -98.83073521 0.86556721 C-95.70798405 0.83377817 -92.58521887 0.80906725 -89.4624033 0.784482 C-87.26703127 0.76386829 -85.07166282 0.74287081 -82.87629795 0.72150898 C-78.24152832 0.67741709 -73.60674537 0.63655961 -68.97192478 0.59820271 C-63.14734879 0.5499578 -57.32284301 0.49616029 -51.49833584 0.44027996 C-40.33470633 0.33327287 -29.17109248 0.24196298 -18.00718594 0.16922283 C-12.00451868 0.1289816 -6.00235438 0.07315998 0 0 Z " fill="#013863" transform="translate(731.6694345474243,238.8991117477417)"/>
<path d="M0 0 C3.3 0 6.6 0 10 0 C10.72218785 48.50695048 -7.5062526 84.97252732 -31.33789062 126.32128906 C-44.83124422 149.7699752 -53.84029852 172.78776132 -56 200 C-55.29617188 199.87882813 -54.59234375 199.75765625 -53.8671875 199.6328125 C-50.58026614 199.07497989 -47.290228 198.53798454 -44 198 C-42.96721924 197.82299561 -41.93443848 197.64599121 -40.87036133 197.46362305 C-31.46874148 195.9644016 -22.30478005 195.64067301 -12.8125 195.6875 C-12.04408783 195.68932281 -11.27567566 195.69114563 -10.48397827 195.69302368 C1.21728159 195.73970404 12.59201306 196.16020662 24 199 C25.23363281 199.30550781 26.46726562 199.61101562 27.73828125 199.92578125 C36.57078761 202.44804423 44.9577943 205.99045395 53.4375 209.5 C86.48170329 223.17307203 118.42736615 225.81115285 153 216 C154.33237056 215.66283894 155.66550452 215.32864981 157 215 C157.02293323 248.58043461 157.04053214 282.16086725 157.05106533 315.74130797 C157.0523159 319.71376913 157.05361024 323.68623027 157.05493164 327.65869141 C157.05532511 328.84486432 157.05532511 328.84486432 157.05572652 330.05500032 C157.06006732 342.82716536 157.06794607 355.59932585 157.0771528 368.3714882 C157.08653365 381.49553886 157.09206497 394.61958715 157.09408849 407.74364102 C157.09545454 415.82939657 157.09975508 423.91513927 157.10791647 432.00089087 C157.11387158 438.22102222 157.11444781 444.44114396 157.11310768 450.66127777 C157.113381 453.19833327 157.11534603 455.73538929 157.11920547 458.27244186 C157.15107859 480.32082699 157.15107859 480.32082699 156.59837341 491.15383911 C156.56533837 491.84423967 156.53230333 492.53464023 156.49826723 493.24596202 C155.5578445 508.81681116 149.87781018 521.03426434 138.6328125 531.7421875 C128.9219738 540.06988004 116.37224838 545.04818042 103.53071594 545.17167664 C102.44445419 545.18435577 101.35819244 545.19703491 100.23901367 545.21009827 C98.4661499 545.2234446 98.4661499 545.2234446 96.6574707 545.23706055 C95.40483932 545.25017273 94.15220795 545.26328491 92.86161804 545.27679443 C89.4316125 545.31139209 86.00162921 545.34160085 82.57156396 545.36918616 C80.42481155 545.38672667 78.27807504 545.40559796 76.13133812 545.42493629 C68.63096929 545.49244505 61.13057727 545.5548222 53.63012695 545.61254883 C46.65745868 545.66635105 39.6849583 545.73146796 32.71243984 545.80188721 C26.71228615 545.86197036 20.71209669 545.91396818 14.71181744 545.95981437 C11.13445829 545.98728803 7.55719923 546.01795582 3.97994423 546.05682945 C-0.016836 546.09993993 -4.01356279 546.12623245 -8.01049805 546.15112305 C-9.18228607 546.16609329 -10.3540741 546.18106354 -11.56137085 546.19648743 C-21.38066419 546.23414247 -30.07733132 545.04991652 -38.875 540.5625 C-39.55481934 540.21687012 -40.23463867 539.87124023 -40.93505859 539.51513672 C-53.78164857 532.64412556 -62.9114545 522.33820619 -67.45703125 508.3984375 C-69.15361316 500.90418358 -69.14420973 493.45259798 -69.13371277 485.80789185 C-69.13597833 484.59277448 -69.13824388 483.37765711 -69.14057809 482.125718 C-69.14579751 478.76945547 -69.14656566 475.41324669 -69.14538372 472.05698395 C-69.14517901 468.43029399 -69.15070526 464.80361191 -69.15544128 461.17692566 C-69.16373492 454.07593132 -69.16649559 446.97494528 -69.16705366 439.8739465 C-69.16752967 434.09578161 -69.16958867 428.31761944 -69.17275429 422.53945541 C-69.18155929 406.13198015 -69.1861742 389.72451142 -69.18542381 373.31703378 C-69.18538386 372.43317435 -69.1853439 371.54931492 -69.18530273 370.63867188 C-69.18526185 369.75372366 -69.18522097 368.86877544 -69.18517885 367.95701061 C-69.18477298 353.63661217 -69.19432799 339.31624009 -69.2084411 324.99584927 C-69.22284134 310.26692558 -69.2297092 295.53801472 -69.22884732 280.80908382 C-69.22851649 272.55011117 -69.23121316 264.29116613 -69.24202538 256.03219986 C-69.25117876 248.99550489 -69.25326644 241.95885002 -69.24651595 234.92215164 C-69.24327425 231.33916658 -69.24310763 227.75625824 -69.2518692 224.17328072 C-69.33468649 188.04701174 -69.33468649 188.04701174 -64.875 171.125 C-64.55523193 169.89330078 -64.55523193 169.89330078 -64.22900391 168.63671875 C-58.52993582 147.67499595 -48.21399673 129.19228246 -36.6875 110.9375 C-14.59451691 75.79182769 -1.6957984 41.45780814 0 0 Z " fill="#F5F3EF" transform="translate(647,263)"/>
<path d="M0 0 C7.60986848 4.93232216 13.32756649 10.88392065 16.8984375 19.23046875 C17.21554687 19.96136719 17.53265625 20.69226563 17.859375 21.4453125 C20.01797178 27.07944812 20.23591952 32.24328781 19.8984375 38.23046875 C21.0946875 38.31296875 22.2909375 38.39546875 23.5234375 38.48046875 C28.57646411 39.13994665 32.00751207 40.98691128 35.34375 44.9453125 C40.16102894 51.45552089 40.60141803 57.22260357 39.8984375 65.23046875 C38.13048617 71.91940561 33.46629006 76.38284852 27.8984375 80.23046875 C22.5219089 83.22096395 16.97715965 84.14764352 10.8984375 83.23046875 C8.02259558 82.35228869 5.26034846 81.33861664 2.4765625 80.203125 C-0.10781321 79.22811053 -2.35118368 78.50994273 -5.1015625 78.23046875 C-6.44319262 78.88027707 -7.77560791 79.54924437 -9.1015625 80.23046875 C-19.21888632 81.48160035 -26.64132724 80.14032124 -35.1015625 74.23046875 C-35.39160156 74.83117187 -35.68164062 75.431875 -35.98046875 76.05078125 C-39.81923196 83.51429997 -45.63472844 86.81419743 -53.1015625 90.23046875 C-56.10506113 91.13838393 -58.85703058 91.37620302 -61.98828125 91.44140625 C-62.92736328 91.46976562 -63.86644531 91.498125 -64.83398438 91.52734375 C-66.78432608 91.57890599 -68.73487136 91.62332623 -70.68554688 91.66015625 C-78.73828482 91.92364052 -85.9442394 93.24811104 -92.6015625 98.04296875 C-97.04669945 101.19160742 -101.56165132 104.2203901 -106.1015625 107.23046875 C-106.20163688 103.28368904 -106.27358766 99.3374167 -106.32128906 95.38964844 C-106.35091727 93.39882397 -106.40178576 91.40835167 -106.453125 89.41796875 C-106.55771943 79.06311992 -105.07827736 70.45723294 -97.80078125 62.703125 C-92.49450163 58.10434933 -88.08521656 57.02037085 -81.1015625 57.23046875 C-81.14796875 56.31265625 -81.194375 55.39484375 -81.2421875 54.44921875 C-81.51878981 45.04474037 -80.77969949 39.58615729 -74.7265625 32.41796875 C-69.73030481 28.25442067 -65.59539006 26.8127462 -59.1015625 26.85546875 C-57.338125 26.84386719 -57.338125 26.84386719 -55.5390625 26.83203125 C-51.80465528 27.264883 -49.3385968 28.36522643 -46.1015625 30.23046875 C-46.01519531 29.62460938 -45.92882812 29.01875 -45.83984375 28.39453125 C-44.14615339 18.29454286 -40.36438508 9.60997859 -32.1015625 3.23046875 C-22.98621561 -2.27567081 -10.04589367 -4.67199858 0 0 Z " fill="#013763" transform="translate(472.1015625,184.76953125)"/>
<path d="M0 0 C5.85392011 -0.07618862 11.70780934 -0.13488639 17.56206512 -0.17828941 C20.9569497 -0.20383596 24.35131534 -0.23700219 27.74589157 -0.29001904 C31.49900123 -0.34350371 35.25099902 -0.36492015 39.00443649 -0.37830639 C40.08967606 -0.40092037 41.17491562 -0.42353436 42.29304123 -0.44683361 C50.49715998 -0.42431199 57.10004216 1.52306359 63.26752853 7.12135792 C68.26373954 12.32567816 70.07927107 17.33863541 70.40287399 24.52013111 C70.23906638 30.50934713 69.01825276 35.99044307 64.96537399 40.52013111 C57.94995545 44.48536768 51.17119085 45.59900321 43.20365524 45.65684986 C41.74117104 45.68411655 41.74117104 45.68411655 40.24914169 45.71193409 C36.96707954 45.76783354 33.6852572 45.80129171 30.40287399 45.83263111 C28.05179561 45.86315519 25.70072149 45.89400888 23.34965134 45.92516041 C17.28935672 45.99836775 11.22913748 46.05064174 5.16857147 46.09328842 C0.12733372 46.12889604 -4.91379764 46.17161572 -9.95494747 46.21800041 C-20.61723014 46.31556605 -31.27937568 46.38381707 -41.94200516 46.42921925 C-45.83092073 46.44627204 -49.71963477 46.47197836 -53.60844803 46.5048418 C-58.24987381 46.54316608 -62.89096649 46.56113443 -67.53254509 46.56427097 C-69.25708351 46.56864369 -70.98162031 46.57985137 -72.70606422 46.59842777 C-91.76602843 46.79365267 -91.76602843 46.79365267 -98.76555252 40.46783924 C-103.62351519 35.44513235 -104.9592646 30.08408554 -105.22212601 23.20763111 C-105.06783648 17.55892001 -104.20699366 12.7630617 -100.39790726 8.42247486 C-92.03226562 0.77120262 -83.62624206 0.67984395 -72.81587601 0.63341236 C-71.2929025 0.61621277 -69.76994254 0.59777536 -68.24699783 0.5781908 C-64.15104151 0.52953914 -60.05515639 0.49952035 -55.95899582 0.47436237 C-52.55216421 0.45200367 -49.14542969 0.42117533 -45.73866463 0.390481 C-37.89108759 0.3199824 -30.04350752 0.26407531 -22.19575882 0.21690845 C-14.79671312 0.17179183 -7.39853698 0.09694847 0 0 Z " fill="#013763" transform="translate(707.9096260070801,183.85486888885498)"/>
<path d="M0 0 C11.55 0 23.1 0 35 0 C35.62092738 12.7528931 36.23186677 25.50598346 36.82562256 38.26013184 C36.94667135 40.85626195 37.06807985 43.4523729 37.19000244 46.04846191 C37.57256789 54.19975633 37.94949105 62.35127667 38.31663227 70.50328159 C38.48502152 74.23992921 38.65548403 77.97645043 38.83169556 81.71273804 C39.74671684 101.16037274 40.19971225 120.52749668 40 140 C36.15860179 138.79891124 32.68670148 137.43955664 29.1640625 135.49609375 C28.27154785 135.00657227 27.3790332 134.51705078 26.45947266 134.01269531 C25.52409668 133.49288086 24.5887207 132.97306641 23.625 132.4375 C22.65997559 131.90608398 21.69495117 131.37466797 20.70068359 130.82714844 C12.43859788 126.26885061 4.21037175 121.65065321 -4 117 C-4.26152019 97.72962576 -3.49225944 78.52981803 -2.66760254 59.28289795 C-2.52737106 55.98680661 -2.39134416 52.69054788 -2.25548744 49.39427376 C-1.57663222 32.92566546 -0.86017845 16.46030794 0 0 Z " fill="#013762" transform="translate(438,388)"/>
<path d="M0 0 C7.69103106 4.64057993 12.33428806 11.93412565 14.625 20.5 C14.89172673 22.95301141 14.83990503 25.0285922 14.625 27.5 C16.2028125 27.5928125 16.2028125 27.5928125 17.8125 27.6875 C23.40281182 28.87887793 25.54712649 31.88318974 28.625 36.5 C29.2940762 42.32718687 29.46976364 47.7166101 26.9375 53.0625 C23.00498286 57.20758563 19.8554389 60.20806404 13.98828125 60.73828125 C7.71052662 60.89100511 3.74934365 60.42584484 -1.65625 57.2578125 C-3.52518599 56.22119288 -3.52518599 56.22119288 -6.25 57.25 C-7.28125 57.6625 -8.3125 58.075 -9.375 58.5 C-16.28059166 59.35027252 -20.67785191 58.46323346 -26.375 54.5 C-26.82230469 55.04269531 -27.26960938 55.58539063 -27.73046875 56.14453125 C-28.63732422 57.21767578 -28.63732422 57.21767578 -29.5625 58.3125 C-30.15417969 59.02019531 -30.74585938 59.72789062 -31.35546875 60.45703125 C-36.86852143 66.0340652 -42.7271241 66.35415666 -50.16210938 67.22851562 C-57.82598951 68.26054411 -63.7523945 70.92142499 -69.8125 75.75 C-73.29084158 78.5 -73.29084158 78.5 -74.375 78.5 C-74.4923794 75.00028801 -74.56263961 71.50109045 -74.625 68 C-74.65851563 67.01773438 -74.69203125 66.03546875 -74.7265625 65.0234375 C-74.82135854 57.91373454 -73.8564291 52.33516684 -68.9621582 46.94360352 C-65.8855915 44.15671195 -63.39377002 43.14599518 -59.375 42.5 C-59.42140625 41.70335937 -59.4678125 40.90671875 -59.515625 40.0859375 C-59.81022232 31.43740192 -59.81022232 31.43740192 -57.75 27 C-54.32871991 23.39865254 -51.80755446 20.78244464 -46.68359375 20.1875 C-42.0101355 20.08793231 -38.4797597 20.09110346 -34.375 22.5 C-34.33375 21.200625 -34.2925 19.90125 -34.25 18.5625 C-33.44849926 11.7657737 -30.3074841 7.0725402 -25.2109375 2.6015625 C-17.67797063 -2.62489334 -8.53033718 -3.67002879 0 0 Z " fill="#013763" transform="translate(528.375,294.5)"/>
<path d="M0 0 C4.95 0 9.9 0 15 0 C18.69815355 7.95849672 21.69893067 16.13304767 24.6875 24.375 C25.19047623 25.75400804 25.69372952 27.13291505 26.19726562 28.51171875 C29.76468417 38.2940525 29.76468417 38.2940525 31 42 C34.66547526 33.26723129 37.69967791 24.33494806 40.75 15.375 C41.2614822 13.87882536 41.77319924 12.38273098 42.28515625 10.88671875 C43.52614384 7.2587311 44.76395864 3.62967564 46 0 C48.47923801 -0.02685095 50.9581884 -0.04676547 53.4375 -0.0625 C54.14455078 -0.07087891 54.85160156 -0.07925781 55.58007812 -0.08789062 C57.38693559 -0.09653588 59.19387603 -0.05220011 61 0 C62.82238662 1.82238662 62.11997696 4.34756083 62.12442017 6.7724762 C62.11902725 8.01540688 62.11902725 8.01540688 62.11352539 9.28344727 C62.11367142 10.15166107 62.11381744 11.01987488 62.1139679 11.91439819 C62.11326846 14.79842586 62.10547463 17.6823898 62.09765625 20.56640625 C62.09579218 22.56037867 62.09436823 24.55435155 62.09336853 26.54832458 C62.08954248 31.80745702 62.07971145 37.06656203 62.06866455 42.32568359 C62.0584523 47.68782175 62.05387131 53.04996431 62.04882812 58.41210938 C62.03808926 68.94141833 62.0210118 79.47070689 62 90 C57.38 90 52.76 90 48 90 C48 73.83 48 57.66 48 41 C47.34 41 46.68 41 46 41 C45.87625 41.62261719 45.7525 42.24523437 45.625 42.88671875 C43.11459331 54.13647873 39.1599747 65.6800506 34 76 C32.35 76 30.7 76 29 76 C25.52012627 68.66706608 22.85915369 61.1162308 20.25 53.4375 C19.83878906 52.23802734 19.42757812 51.03855469 19.00390625 49.80273438 C17.99896617 46.86971158 16.99776006 43.93547141 16 41 C15.98969254 41.59912704 15.97938507 42.19825409 15.96876526 42.8155365 C15.86093035 49.02810088 15.74631456 55.24051341 15.62768555 61.45288086 C15.58426261 63.77413773 15.54259316 66.09542808 15.50268555 68.41674805 C15.4451606 71.74538278 15.38141575 75.07384785 15.31640625 78.40234375 C15.29133751 79.96951393 15.29133751 79.96951393 15.26576233 81.56834412 C15.24581711 82.52926468 15.22587189 83.49018524 15.20532227 84.48022461 C15.18977798 85.33071884 15.1742337 86.18121307 15.15821838 87.05747986 C15 89 15 89 14 90 C11.83519203 90.0989294 9.66706215 90.129711 7.5 90.125 C6.3140625 90.12757813 5.128125 90.13015625 3.90625 90.1328125 C1 90 1 90 0 89 C-0.09517803 86.23061034 -0.12554265 83.48622841 -0.11352539 80.71655273 C-0.11367142 79.84833893 -0.11381744 78.98012512 -0.1139679 78.08560181 C-0.11326846 75.20157414 -0.10547463 72.3176102 -0.09765625 69.43359375 C-0.09579218 67.43962133 -0.09436823 65.44564845 -0.09336853 63.45167542 C-0.08954248 58.19254298 -0.07971145 52.93343797 -0.06866455 47.67431641 C-0.0584523 42.31217825 -0.05387131 36.95003569 -0.04882812 31.58789062 C-0.03808926 21.05858167 -0.0210118 10.52929311 0 0 Z " fill="#01335F" transform="translate(597,547)"/>
<path d="M0 0 C1.1859375 0.00257813 2.371875 0.00515625 3.59375 0.0078125 C4.7796875 0.00523437 5.965625 0.00265625 7.1875 0 C10.09375 0.1328125 10.09375 0.1328125 11.09375 1.1328125 C11.25200258 3.13063376 11.34494171 5.13370084 11.41015625 7.13671875 C11.47299805 8.95913086 11.47299805 8.95913086 11.53710938 10.81835938 C11.57642578 12.09775391 11.61574219 13.37714844 11.65625 14.6953125 C11.69943359 15.97857422 11.74261719 17.26183594 11.78710938 18.58398438 C11.893598 21.76681103 11.99560962 24.94971924 12.09375 28.1328125 C12.43631836 27.52808105 12.77888672 26.92334961 13.13183594 26.30029297 C14.7001592 23.53481275 16.27192344 20.77130292 17.84375 18.0078125 C18.38257813 17.05648437 18.92140625 16.10515625 19.4765625 15.125 C20.52960375 13.27575683 21.5928213 11.43226494 22.66699219 9.59521484 C23.51891736 8.12490046 24.34669891 6.63952609 25.12207031 5.12744141 C26.03125 3.4765625 26.03125 3.4765625 28.09375 1.1328125 C31.546875 0.546875 31.546875 0.546875 35.34375 0.7578125 C37.23867188 0.83902344 37.23867188 0.83902344 39.171875 0.921875 C40.13609375 0.99148438 41.1003125 1.06109375 42.09375 1.1328125 C41.49039688 5.6223758 39.67767022 9.19252789 37.53125 13.11328125 C37.1798999 13.76734451 36.8285498 14.42140778 36.46655273 15.09529114 C35.3483699 17.17364799 34.22127216 19.24701012 33.09375 21.3203125 C32.33533326 22.72558552 31.57751429 24.13118133 30.8203125 25.53710938 C29.43732801 28.10385012 28.05055986 30.66847267 26.66015625 33.23120117 C25.78405069 34.85409934 24.91853596 36.48324058 24.09375 38.1328125 C25.02467752 40.05201826 25.96483904 41.96740333 26.95571899 43.85635376 C28.79843586 47.54242988 30.13539807 51.39030076 31.51171875 55.26953125 C31.81443192 56.11199905 32.11714508 56.95446686 32.42903137 57.82246399 C33.06243766 59.58886967 33.6934048 61.35615174 34.32202148 63.12426758 C35.28307579 65.82544415 36.25325863 68.52321434 37.22460938 71.22070312 C37.84168783 72.94511865 38.45824266 74.66972165 39.07421875 76.39453125 C39.36274216 77.19670578 39.65126556 77.99888031 39.9485321 78.82536316 C40.21583633 79.5799733 40.48314056 80.33458344 40.75854492 81.11206055 C40.99296799 81.76965866 41.22739105 82.42725677 41.46891785 83.1047821 C42.1768901 85.40266201 42.62219461 87.77503553 43.09375 90.1328125 C38.14375 90.1328125 33.19375 90.1328125 28.09375 90.1328125 C23.45005907 79.24916188 19.26775774 68.20334515 15.09375 57.1328125 C12.10843343 59.85853632 11.18760828 61.84413046 10.88842773 65.9519043 C10.83344116 67.62506714 10.83344116 67.62506714 10.77734375 69.33203125 C10.73544922 70.54052734 10.69355469 71.74902344 10.65039062 72.99414062 C10.61107422 74.25677734 10.57175781 75.51941406 10.53125 76.8203125 C10.48806641 78.09455078 10.44488281 79.36878906 10.40039062 80.68164062 C10.29420211 83.83189977 10.19346187 86.9823417 10.09375 90.1328125 C5.47375 90.1328125 0.85375 90.1328125 -3.90625 90.1328125 C-3.92937228 78.54592848 -3.9471645 66.95904991 -3.95806217 55.37214756 C-3.96329125 49.99247488 -3.97038935 44.61281792 -3.98168945 39.2331543 C-3.99251745 34.04606407 -3.99852665 28.85898901 -4.00112724 23.67188835 C-4.00298165 21.6882497 -4.00660256 19.70461192 -4.01198006 17.72097969 C-4.01918932 14.95272114 -4.02024099 12.18452612 -4.01977539 9.41625977 C-4.02337067 8.58763931 -4.02696594 7.75901886 -4.03067017 6.9052887 C-4.01835399 0.18363446 -4.01835399 0.18363446 0 0 Z " fill="#033560" transform="translate(745.90625,546.8671875)"/>
<path d="M0 0 C0 22.44 0 44.88 0 68 C-12.54 68 -25.08 68 -38 68 C-38 46.22 -38 24.44 -38 2 C-29.151875 1.505 -29.151875 1.505 -20.125 1 C-18.26375488 0.89558594 -16.40250977 0.79117188 -14.48486328 0.68359375 C-13.01334881 0.6015185 -11.54183204 0.51948442 -10.0703125 0.4375 C-8.91970337 0.37272461 -8.91970337 0.37272461 -7.74584961 0.30664062 C-2.2281436 0 -2.2281436 0 0 0 Z " fill="#F6F4F0" transform="translate(252,743)"/>
<path d="M0 0 C2.31243792 -0.02685412 4.6249627 -0.04632841 6.9375 -0.0625 C8.22527344 -0.07410156 9.51304687 -0.08570313 10.83984375 -0.09765625 C14 0 14 0 15 1 C15.09492722 3.34253782 15.12559791 5.65546104 15.11352539 7.99829102 C15.11367142 8.72995483 15.11381744 9.46161865 15.1139679 10.2154541 C15.11326867 12.64496784 15.10547585 15.07440583 15.09765625 17.50390625 C15.0957921 19.18399514 15.09436819 20.86408457 15.09336853 22.54417419 C15.08954307 26.97473643 15.07971256 31.4052661 15.06866455 35.83581543 C15.05845103 40.35342976 15.05387104 44.87104934 15.04882812 49.38867188 C15.03809031 58.25912893 15.02101356 67.12956176 15 76 C16.28777344 75.98839844 17.57554687 75.97679687 18.90234375 75.96484375 C20.58072772 75.9554673 22.25911326 75.94636695 23.9375 75.9375 C25.21270508 75.92493164 25.21270508 75.92493164 26.51367188 75.91210938 C27.32255859 75.90888672 28.13144531 75.90566406 28.96484375 75.90234375 C29.7137085 75.89710693 30.46257324 75.89187012 31.23413086 75.88647461 C33 76 33 76 34 77 C34.12487758 78.80927281 34.17570846 80.62396107 34.1875 82.4375 C34.20167969 83.42621094 34.21585938 84.41492188 34.23046875 85.43359375 C34 88 34 88 32 90 C28.94311523 90.24291992 28.94311523 90.24291992 25.05859375 90.23046875 C24.37571793 90.23001053 23.6928421 90.22955231 22.98927307 90.2290802 C21.54597231 90.22605891 20.10267478 90.21817622 18.65942383 90.20581055 C16.44275447 90.1875433 14.22650242 90.18530093 12.00976562 90.18554688 C1.14742468 90.14742468 1.14742468 90.14742468 0 89 C-0.09517803 86.23061034 -0.12554265 83.48622841 -0.11352539 80.71655273 C-0.11367142 79.84833893 -0.11381744 78.98012512 -0.1139679 78.08560181 C-0.11326846 75.20157414 -0.10547463 72.3176102 -0.09765625 69.43359375 C-0.09579218 67.43962133 -0.09436823 65.44564845 -0.09336853 63.45167542 C-0.08954248 58.19254298 -0.07971145 52.93343797 -0.06866455 47.67431641 C-0.0584523 42.31217825 -0.05387131 36.95003569 -0.04882812 31.58789062 C-0.03808926 21.05858167 -0.0210118 10.52929311 0 0 Z " fill="#023460" transform="translate(699,548)"/>
<path d="M0 0 C4.62 0 9.24 0 14 0 C14 29.37 14 58.74 14 89 C11.39820337 90.30089831 9.4030812 90.16840078 6.5 90.1875 C5.5203125 90.20167969 4.540625 90.21585938 3.53125 90.23046875 C1 90 1 90 -1 88 C-1.19005899 85.20852051 -1.25501941 82.51841731 -1.23046875 79.7265625 C-1.23037308 78.87107819 -1.2302774 78.01559387 -1.23017883 77.13418579 C-1.22641719 74.29765518 -1.20737427 71.46146019 -1.1875 68.625 C-1.18061988 66.66113407 -1.17411418 64.6972668 -1.16796875 62.73339844 C-1.07597475 41.81713405 -0.57449062 20.90779175 0 0 Z " fill="#05355F" transform="translate(673,548)"/>
<path d="M0 0 C0 10.56 0 21.12 0 32 C-3.0525 32.495 -6.105 32.99 -9.25 33.5 C-10.20551758 33.65662109 -11.16103516 33.81324219 -12.14550781 33.97460938 C-12.90702148 34.09642578 -13.66853516 34.21824219 -14.453125 34.34375 C-15.22817383 34.46943359 -16.00322266 34.59511719 -16.80175781 34.72460938 C-19 35 -19 35 -23 35 C-23 24.77 -23 14.54 -23 4 C-18.77415261 2.5913842 -15.25123117 1.5763292 -10.9375 0.875 C-9.93589844 0.70742188 -8.93429687 0.53984375 -7.90234375 0.3671875 C-5 0 -5 0 0 0 Z " fill="#F3F2EF" transform="translate(267,557)"/>
<path d="M0 0 C0 10.56 0 21.12 0 32 C-7.59 32.33 -15.18 32.66 -23 33 C-23 22.77 -23 12.54 -23 2 C-8 0 -8 0 0 0 Z " fill="#F5F3F0" transform="translate(267,632)"/>
<path d="M0 0 C0 10.23 0 20.46 0 31 C-4.0254471 32.3418157 -7.46379126 33.39038079 -11.5625 34.125 C-12.92568359 34.37636719 -12.92568359 34.37636719 -14.31640625 34.6328125 C-17 35 -17 35 -22 35 C-22 25.1 -22 15.2 -22 5 C-19.463125 4.360625 -16.92625 3.72125 -14.3125 3.0625 C-13.52270752 2.86277588 -12.73291504 2.66305176 -11.91918945 2.45727539 C-2.12846348 0 -2.12846348 0 0 0 Z " fill="#F5F3F0" transform="translate(221,565)"/>
<path d="M0 0 C0 10.23 0 20.46 0 31 C-7.26 31.66 -14.52 32.32 -22 33 C-22 22.77 -22 12.54 -22 2 C-19.48375 1.67 -16.9675 1.34 -14.375 1 C-13.59431152 0.89558594 -12.81362305 0.79117188 -12.00927734 0.68359375 C-11.05722412 0.56177734 -11.05722412 0.56177734 -10.0859375 0.4375 C-9.4470459 0.35371094 -8.8081543 0.26992188 -8.14990234 0.18359375 C-5.44243323 -0.04761415 -2.71732333 0 0 0 Z " fill="#F6F5F1" transform="translate(221,637)"/>
<path d="M0 0 C14 2 14 2 20 3 C20 13.23 20 23.46 20 34 C5 33 5 33 0 32 C0 21.44 0 10.88 0 0 Z " fill="#F6F4F1" transform="translate(320,559)"/>
<path d="M0 0 C0 9.57 0 19.14 0 29 C-6.93 29 -13.86 29 -21 29 C-21 19.76 -21 10.52 -21 1 C-17.720625 0.835 -14.44125 0.67 -11.0625 0.5 C-10.02746338 0.44779297 -8.99242676 0.39558594 -7.92602539 0.34179688 C-6.71160767 0.28088867 -6.71160767 0.28088867 -5.47265625 0.21875 C-4.64000244 0.17685547 -3.80734863 0.13496094 -2.94946289 0.09179688 C-1.96692123 0.04553067 -0.98363035 0 0 0 Z " fill="#F7F4F1" transform="translate(391,747)"/>
<path d="M0 0 C0 9.24 0 18.48 0 28 C-6.93 28 -13.86 28 -21 28 C-21 19.09 -21 10.18 -21 1 C-13 0 -13 0 0 0 Z " fill="#F3F1ED" transform="translate(348,749)"/>
<path d="M0 0 C0 9.24 0 18.48 0 28 C-11 29 -11 29 -21 29 C-21 20.09 -21 11.18 -21 2 C-17.1946875 1.505 -17.1946875 1.505 -13.3125 1 C-12.52270752 0.89558594 -11.73291504 0.79117188 -10.91918945 0.68359375 C-9.96338989 0.56177734 -9.96338989 0.56177734 -8.98828125 0.4375 C-8.02208862 0.31181641 -8.02208862 0.31181641 -7.03637695 0.18359375 C-4.69959751 -0.0270834 -2.34625724 0 0 0 Z " fill="#F4F2EE" transform="translate(391,694)"/>
<path d="M0 0 C2.578125 0.309375 5.15625 0.61875 7.8125 0.9375 C8.62050049 1.03281006 9.42850098 1.12812012 10.26098633 1.22631836 C13.30978917 1.60000803 16.07851544 2.02617181 19 3 C19 12.57 19 22.14 19 32 C12.657829 31.423439 6.31914741 30.78989343 0 30 C0 20.1 0 10.2 0 0 Z " fill="#F4F2EF" transform="translate(362,567)"/>
<path d="M0 0 C0 8.91 0 17.82 0 27 C-10.395 27.495 -10.395 27.495 -21 28 C-21 19.42 -21 10.84 -21 2 C-17.473125 1.505 -17.473125 1.505 -13.875 1 C-13.14651855 0.89558594 -12.41803711 0.79117188 -11.66748047 0.68359375 C-7.68106819 0.13866514 -4.06404157 0 0 0 Z " fill="#F5F4F1" transform="translate(348,699)"/>
<path d="M0 0 C9.405 1.485 9.405 1.485 19 3 C19 11.91 19 20.82 19 30 C6 30 6 30 0 29 C0 19.43 0 9.86 0 0 Z " fill="#F4F3F0" transform="translate(443,693)"/>
<path d="M0 0 C6.27 0 12.54 0 19 0 C19 8.91 19 17.82 19 27 C12.73 27 6.46 27 0 27 C0 18.09 0 9.18 0 0 Z " fill="#F6F4F1" transform="translate(443,749)"/>
<path d="M0 0 C5.67743105 0.5677431 11.35159806 1.19308544 17 2 C17 11.57 17 21.14 17 31 C11.39 30.01 5.78 29.02 0 28 C0 18.76 0 9.52 0 0 Z " fill="#F5F3F0" transform="translate(401,574)"/>
<path d="M0 0 C5.61 0.66 11.22 1.32 17 2 C17 10.25 17 18.5 17 27 C11.39 26.67 5.78 26.34 0 26 C0 17.42 0 8.84 0 0 Z " fill="#F6F4F1" transform="translate(482,699)"/>
<path d="M0 0 C5.94 0.33 11.88 0.66 18 1 C18 9.25 18 17.5 18 26 C12.39 26 6.78 26 1 26 C0.67 17.42 0.34 8.84 0 0 Z " fill="#F6F4F1" transform="translate(481,750)"/>
<path d="M0 0 C5.61 0.33 11.22 0.66 17 1 C17 8.92 17 16.84 17 25 C11.39 25 5.78 25 0 25 C0 16.75 0 8.5 0 0 Z " fill="#F6F3F0" transform="translate(518,751)"/>
<path d="M0 0 C8.415 1.485 8.415 1.485 17 3 C17 10.59 17 18.18 17 26 C6 26 6 26 0 25 C0 16.75 0 8.5 0 0 Z " fill="#F2F1EF" transform="translate(518,704)"/>
<path d="M0 0 C0.33 0 0.66 0 1 0 C1 9.24 1 18.48 1 28 C-5.93 28 -12.86 28 -20 28 C-20 19.09 -20 10.18 -20 1 C-14.06 1 -8.12 1 -2 1 C-2 1.33 -2 1.66 -2 2 C-7.28 2 -12.56 2 -18 2 C-17.67 9.92 -17.34 17.84 -17 26 C-11.72 26 -6.44 26 -1 26 C-1.01160156 24.37449219 -1.02320313 22.74898437 -1.03515625 21.07421875 C-1.04453469 18.94531365 -1.05363483 16.8164073 -1.0625 14.6875 C-1.07087891 13.61564453 -1.07925781 12.54378906 -1.08789062 11.43945312 C-1.09111328 10.41142578 -1.09433594 9.38339844 -1.09765625 8.32421875 C-1.10289307 7.37635498 -1.10812988 6.42849121 -1.11352539 5.4519043 C-1 3 -1 3 0 0 Z " fill="#F9FCFB" transform="translate(347,749)"/>
<path d="M0 0 C5.61 0.33 11.22 0.66 17 1 C17 7.27 17 13.54 17 20 C16.34 20.33 15.68 20.66 15 21 C14.00359279 15.27065855 13.92031644 9.81689987 14 4 C10.37 4 6.74 4 3 4 C3.020625 4.94875 3.04125 5.8975 3.0625 6.875 C3 10 3 10 2 12 C1.77141886 14.0374763 1.58975722 16.08040303 1.4375 18.125 C1.293125 20.06375 1.14875 22.0025 1 24 C6.28 24 11.56 24 17 24 C17 24.33 17 24.66 17 25 C11.39 25 5.78 25 0 25 C0 16.75 0 8.5 0 0 Z " fill="#E4EAEB" transform="translate(518,751)"/>
<path d="M0 0 C3.01217112 0.64449607 5.51655836 1.65022182 8.25 3.0625 C8.95640625 3.42472656 9.6628125 3.78695312 10.390625 4.16015625 C10.92171875 4.43730469 11.4528125 4.71445312 12 5 C12.17280959 34.3457264 11.67549794 63.66254938 11 93 C10.67 93 10.34 93 10 93 C9.67 64.29 9.34 35.58 9 6 C6.03 5.505 6.03 5.505 3 5 C2.67 4.01 2.34 3.02 2 2 C1.34 1.34 0.68 0.68 0 0 Z " fill="#002252" transform="translate(523,565)"/>
<path d="M0 0 C16.17 0 32.34 0 49 0 C49 0.99 49 1.98 49 3 C24.91 3 0.82 3 -24 3 C-24 2.67 -24 2.34 -24 2 C-16.08 1.67 -8.16 1.34 0 1 C0 0.67 0 0.34 0 0 Z " fill="#DDE5E7" transform="translate(706,229)"/>
<path d="M0 0 C1.43352212 0.00015908 2.86704998 0.00585132 4.30053711 0.01586914 C5.43041298 0.01799156 5.43041298 0.01799156 6.58311462 0.02015686 C8.99807646 0.02577163 11.41294687 0.03832656 13.82788086 0.05102539 C15.46134307 0.05603849 17.09480672 0.06060173 18.72827148 0.06469727 C22.74067671 0.07574585 26.75301326 0.09302033 30.76538086 0.11352539 C30.76538086 0.77352539 30.76538086 1.43352539 30.76538086 2.11352539 C19.87538086 2.11352539 8.98538086 2.11352539 -2.23461914 2.11352539 C-2.23461914 9.70352539 -2.23461914 17.29352539 -2.23461914 25.11352539 C-2.89461914 25.11352539 -3.55461914 25.11352539 -4.23461914 25.11352539 C-4.26348898 21.1343738 -4.2813732 17.15524886 -4.29711914 13.17602539 C-4.30549805 12.0397168 -4.31387695 10.9034082 -4.32250977 9.73266602 C-4.32573242 8.65307617 -4.32895508 7.57348633 -4.33227539 6.46118164 C-4.33751221 5.46094971 -4.34274902 4.46071777 -4.34814453 3.43017578 C-4.16995385 -0.20606366 -3.73957515 0.13124783 0 0 Z " fill="#324768" transform="translate(135.234619140625,810.886474609375)"/>
<path d="M0 0 C1.98 0 3.96 0 6 0 C6 0.33 6 0.66 6 1 C4.35 1 2.7 1 1 1 C1 8.92 1 16.84 1 25 C1.99 24.67 2.98 24.34 4 24 C6.56782022 23.77268477 9.11557464 23.58417733 11.6875 23.4375 C14.100625 23.293125 16.51375 23.14875 19 23 C19 15.74 19 8.48 19 1 C19.66 0.67 20.32 0.34 21 0 C21 8.25 21 16.5 21 25 C10 26 10 26 0 26 C0 17.42 0 8.84 0 0 Z " fill="#FBFCFB" transform="translate(370,697)"/>
<path d="M0 0 C9.24 0 18.48 0 28 0 C28 0.33 28 0.66 28 1 C29.98 1.33 31.96 1.66 34 2 C34 2.33 34 2.66 34 3 C15.52 3 -2.96 3 -22 3 C-22 2.67 -22 2.34 -22 2 C-14.74 1.67 -7.48 1.34 0 1 C0 0.67 0 0.34 0 0 Z " fill="#10426C" transform="translate(696,184)"/>
<path d="M0 0 C1.53511612 3.07023225 0.94750997 6.21418413 0.765625 9.5625 C0.72693298 10.30959229 0.68824097 11.05668457 0.64837646 11.82641602 C0.56390487 13.40690553 0.47627518 14.98722892 0.38574219 16.56738281 C0.25057349 18.98972254 0.13668285 21.41248695 0.0234375 23.8359375 C-0.06118882 25.36986457 -0.14708381 26.90372228 -0.234375 28.4375 C-0.26577576 29.16461182 -0.29717651 29.89172363 -0.32952881 30.64086914 C-0.45996094 32.68359375 -0.45996094 32.68359375 -1 36 C-1.99 36.66 -2.98 37.32 -4 38 C-4.08915628 32.05624774 -4.13780507 26.30092412 -3.2109375 20.4140625 C-2.8352912 16.11499927 -3.03807176 11.76826397 -3.21289062 7.45800781 C-3.2578125 5.4140625 -3.2578125 5.4140625 -3 2 C-2.01 1.34 -1.02 0.68 0 0 Z " fill="#EBEEEE" transform="translate(343,304)"/>
<path d="M0 0 C2.97 0 5.94 0 9 0 C9 0.33 9 0.66 9 1 C7.35 1 5.7 1 4 1 C2.63160637 3.73678725 2.78365182 6.04264424 2.68359375 9.1015625 C2.64169922 10.31328125 2.59980469 11.525 2.55664062 12.7734375 C2.51732422 14.04445313 2.47800781 15.31546875 2.4375 16.625 C2.39431641 17.90375 2.35113281 19.1825 2.30664062 20.5 C2.20030114 23.66655348 2.09827167 26.83318753 2 30 C2.66 30.33 3.32 30.66 4 31 C2.68 31 1.36 31 0 31 C0 20.77 0 10.54 0 0 Z " fill="#FCFDFB" transform="translate(244,634)"/>
<path d="M0 0 C1.05904289 0.00212242 1.05904289 0.00212242 2.13948059 0.00428772 C4.39120751 0.00987861 6.64283446 0.02242937 8.89453125 0.03515625 C10.4225246 0.04017243 11.95051952 0.04473513 13.47851562 0.04882812 C17.2213926 0.05984505 20.96419498 0.07710338 24.70703125 0.09765625 C24.70703125 0.42765625 24.70703125 0.75765625 24.70703125 1.09765625 C23.72029419 1.16496948 23.72029419 1.16496948 22.71362305 1.23364258 C10.6048547 2.07922402 -1.40174174 3.0223368 -13.36450195 5.13208008 C-17.05430005 5.7797419 -20.54269869 6.26006952 -24.29296875 6.09765625 C-21.17386019 4.30489759 -18.61614447 3.75474907 -15.04296875 3.47265625 C-14.1509375 3.39789063 -13.25890625 3.323125 -12.33984375 3.24609375 C-11.664375 3.19710938 -10.98890625 3.148125 -10.29296875 3.09765625 C-10.29296875 2.43765625 -10.29296875 1.77765625 -10.29296875 1.09765625 C-6.78672445 -0.07109185 -3.64518215 -0.02748642 0 0 Z " fill="#041A49" transform="translate(617.29296875,456.90234375)"/>
<path d="M0 0 C1.32 0.33 2.64 0.66 4 1 C3.01 1.495 3.01 1.495 2 2 C2 10.91 2 19.82 2 29 C3.32 29.33 4.64 29.66 6 30 C4.02 30.33 2.04 30.66 0 31 C0 20.77 0 10.54 0 0 Z " fill="#FDFCFA" transform="translate(244,561)"/>
<path d="M0 0 C0.33 0 0.66 0 1 0 C1 8.91 1 17.82 1 27 C-5.75 29.25 -5.75 29.25 -9 28 C-3.25 26 -3.25 26 -1 26 C-1.00523682 25.2479126 -1.01047363 24.4958252 -1.01586914 23.72094727 C-1.03657227 20.33480658 -1.04963877 16.94867916 -1.0625 13.5625 C-1.07087891 12.37849609 -1.07925781 11.19449219 -1.08789062 9.97460938 C-1.09111328 8.84990234 -1.09433594 7.72519531 -1.09765625 6.56640625 C-1.10289307 5.52427979 -1.10812988 4.48215332 -1.11352539 3.40844727 C-1 1 -1 1 0 0 Z " fill="#FBFCFB" transform="translate(220,569)"/>
<path d="M0 0 C2.31 0 4.62 0 7 0 C7 9.57 7 19.14 7 29 C5.35 28.67 3.7 28.34 2 28 C2.99 27.67 3.98 27.34 5 27 C5 18.42 5 9.84 5 1 C3.35 1 1.7 1 0 1 C0 0.67 0 0.34 0 0 Z " fill="#E5EBED" transform="translate(374,570)"/>
<path d="M0 0 C0.66 0.33 1.32 0.66 2 1 C2.16938829 12.36783648 1.63922005 23.65384417 1 35 C0.67 35 0.34 35 0 35 C-0.16773186 30.49786378 -0.32827877 25.99555027 -0.48217773 21.49291992 C-0.53554122 19.96127431 -0.59086614 18.42969573 -0.64819336 16.89819336 C-0.73026252 14.69659883 -0.80527067 12.49485949 -0.87890625 10.29296875 C-0.90594131 9.60849167 -0.93297638 8.92401459 -0.96083069 8.21879578 C-1.05703182 5.1530145 -0.98026873 2.94080618 0 0 Z " fill="#DEE6E9" transform="translate(392,364)"/>
<path d="M0 0 C0.33 0 0.66 0 1 0 C1 10.23 1 20.46 1 31 C-2.3 31 -5.6 31 -9 31 C-9 30.34 -9 29.68 -9 29 C-5.04 28.505 -5.04 28.505 -1 28 C-0.67 18.76 -0.34 9.52 0 0 Z " fill="#D2DCE1" transform="translate(266,633)"/>
<path d="M0 0 C0.66 0 1.32 0 2 0 C2.05799124 3.77076889 2.09359306 7.54142334 2.125 11.3125 C2.15013672 12.9202832 2.15013672 12.9202832 2.17578125 14.56054688 C2.18222656 15.58857422 2.18867187 16.61660156 2.1953125 17.67578125 C2.20578613 18.62364502 2.21625977 19.57150879 2.22705078 20.5480957 C2 23 2 23 0 26 C-0.19583915 21.85451585 -0.38027842 17.7086033 -0.5625 13.5625 C-0.61857422 12.37849609 -0.67464844 11.19449219 -0.73242188 9.97460938 C-0.78076172 8.84990234 -0.82910156 7.72519531 -0.87890625 6.56640625 C-0.9260376 5.52427979 -0.97316895 4.48215332 -1.02172852 3.40844727 C-1 1 -1 1 0 0 Z " fill="#C9D8E0" transform="translate(802,478)"/>
<path d="M0 0 C0.33 0 0.66 0 1 0 C1.33 6.6 1.66 13.2 2 20 C2.66 20.33 3.32 20.66 4 21 C2.35 21.99 0.7 22.98 -1 24 C-1.02893932 20.37501666 -1.04677792 16.75006287 -1.0625 13.125 C-1.07087891 12.09246094 -1.07925781 11.05992187 -1.08789062 9.99609375 C-1.09111328 9.00996094 -1.09433594 8.02382813 -1.09765625 7.0078125 C-1.10289307 6.09660645 -1.10812988 5.18540039 -1.11352539 4.24658203 C-1 2 -1 2 0 0 Z " fill="#05214F" transform="translate(455,349)"/>
<path d="M0 0 C0.33 0 0.66 0 1 0 C1 7.26 1 14.52 1 22 C0.67 22 0.34 22 0 22 C-0.33 19.69 -0.66 17.38 -1 15 C-1.33 15 -1.66 15 -2 15 C-2 11.04 -2 7.08 -2 3 C-1.34 3 -0.68 3 0 3 C0 2.01 0 1.02 0 0 Z " fill="#ECEDEC" transform="translate(476,415)"/>
<path d="M0 0 C3.3 0.33 6.6 0.66 10 1 C6 3 6 3 2 3 C2 9.93 2 16.86 2 24 C1.67 24 1.34 24 1 24 C0.67 16.08 0.34 8.16 0 0 Z " fill="#E7E9E7" transform="translate(320,559)"/>
<path d="M0 0 C0.33 0 0.66 0 1 0 C1 10.89 1 21.78 1 33 C0.01 33 -0.98 33 -2 33 C-1.67 32.34 -1.34 31.68 -1 31 C-0.84479443 28.67726841 -0.74980833 26.35040687 -0.68359375 24.0234375 C-0.6524221 22.99556625 -0.6524221 22.99556625 -0.62062073 21.94692993 C-0.55519815 19.75638931 -0.49627446 17.56572811 -0.4375 15.375 C-0.39430782 13.8906125 -0.3506933 12.40623722 -0.30664062 10.921875 C-0.19952447 7.28137916 -0.09823638 3.64074749 0 0 Z " fill="#ECEBE7" transform="translate(382,491)"/>
<path d="M0 0 C1.33566756 3.03560809 0.91578966 4.26198771 -0.125 7.5 C-2.05828515 11.10879894 -3.67860495 12.70057265 -7 15 C-7.66 15.66 -8.32 16.32 -9 17 C-8.37083868 13.58233357 -7.04632754 11.3326535 -5.0625 8.5 C-3.13711214 5.7372813 -1.43463424 3.04946407 0 0 Z " fill="#06214B" transform="translate(799,775)"/>
<path d="M0 0 C0.99 0.66 1.98 1.32 3 2 C2.7159949 4.06356895 2.42246648 6.1258285 2.125 8.1875 C1.96257813 9.33605469 1.80015625 10.48460937 1.6328125 11.66796875 C1.05939755 14.68724625 0.25240957 17.20575848 -1 20 C-2.29183852 17.41632296 -1.7109138 16.76931129 -1 14 C-0.77882441 11.5861824 -0.59427758 9.16885403 -0.4375 6.75 C-0.35371094 5.48671875 -0.26992188 4.2234375 -0.18359375 2.921875 C-0.12300781 1.95765625 -0.06242188 0.9934375 0 0 Z " fill="#0B2652" transform="translate(828,765)"/>
<path d="M0 0 C1.4540625 0.0309375 1.4540625 0.0309375 2.9375 0.0625 C2.69978882 0.92536621 2.69978882 0.92536621 2.45727539 1.80566406 C1.95836674 3.97189777 1.73861676 5.95572683 1.62109375 8.171875 C1.57919922 8.92597656 1.53730469 9.68007813 1.49414062 10.45703125 C1.43516602 11.62298828 1.43516602 11.62298828 1.375 12.8125 C1.33181641 13.60527344 1.28863281 14.39804687 1.24414062 15.21484375 C1.13847009 17.16387815 1.03752034 19.11316748 0.9375 21.0625 C0.6075 21.0625 0.2775 21.0625 -0.0625 21.0625 C-0.0625 14.7925 -0.0625 8.5225 -0.0625 2.0625 C-1.3825 1.7325 -2.7025 1.4025 -4.0625 1.0625 C-3.0625 0.0625 -3.0625 0.0625 0 0 Z " fill="#DFE4E5" transform="translate(345.0625,698.9375)"/>
<path d="M0 0 C0.33 0 0.66 0 1 0 C2.11165232 4.4378561 2.11527763 8.76956386 2.0625 13.3125 C2.05798828 14.05306641 2.05347656 14.79363281 2.04882812 15.55664062 C2.03712175 17.37112899 2.01918898 19.18557534 2 21 C1.67 21 1.34 21 1 21 C0.67 17.7 0.34 14.4 0 11 C-0.33 11 -0.66 11 -1 11 C-1.0270043 9.54176788 -1.04639787 8.08339325 -1.0625 6.625 C-1.07410156 5.81289063 -1.08570313 5.00078125 -1.09765625 4.1640625 C-1 2 -1 2 0 0 Z " fill="#EBEEEC" transform="translate(391,341)"/>
<path d="M0 0 C1.63001953 0.01353516 1.63001953 0.01353516 3.29296875 0.02734375 C4.12441406 0.03894531 4.95585937 0.05054688 5.8125 0.0625 C5.8125 0.3925 5.8125 0.7225 5.8125 1.0625 C-0.6225 1.5575 -0.6225 1.5575 -7.1875 2.0625 C-7.1875 2.7225 -7.1875 3.3825 -7.1875 4.0625 C-9.1675 5.0525 -9.1675 5.0525 -11.1875 6.0625 C-11.8475 5.4025 -12.5075 4.7425 -13.1875 4.0625 C-8.73720497 0.53295567 -5.63869785 -0.06063116 0 0 Z " fill="#071E4B" transform="translate(412.1875,211.9375)"/>
<path d="M0 0 C4.95 0 9.9 0 15 0 C15 1.65 15 3.3 15 5 C14.67 4.34 14.34 3.68 14 3 C8.06 3.495 8.06 3.495 2 4 C1.34 2.68 0.68 1.36 0 0 Z " fill="#13456E" transform="translate(597,547)"/>
<path d="M0 0 C3.63 0 7.26 0 11 0 C6.5 3.375 6.5 3.375 2.671875 3.29296875 C1.87265625 3.28330078 1.0734375 3.27363281 0.25 3.26367188 C-0.575 3.23853516 -1.4 3.21339844 -2.25 3.1875 C-3.09046875 3.17396484 -3.9309375 3.16042969 -4.796875 3.14648438 C-6.86485938 3.11123464 -8.93251271 3.0574302 -11 3 C-11 2.67 -11 2.34 -11 2 C-7.37 2 -3.74 2 0 2 C0 1.34 0 0.68 0 0 Z " fill="#042656" transform="translate(764,483)"/>
<path d="M0 0 C3.3 0 6.6 0 10 0 C10 0.33 10 0.66 10 1 C7.36 1.33 4.72 1.66 2 2 C2 5.96 2 9.92 2 14 C1.67 14 1.34 14 1 14 C-0.21379503 9.29654425 -0.07202527 4.82569313 0 0 Z " fill="#CFDDE4" transform="translate(647,263)"/>
<path d="M0 0 C0.66 0 1.32 0 2 0 C2 5.28 2 10.56 2 16 C1.01 15.34 0.02 14.68 -1 14 C-1.328125 10.99609375 -1.328125 10.99609375 -1.25 7.4375 C-1.22679687 5.67212891 -1.22679687 5.67212891 -1.203125 3.87109375 C-1 1 -1 1 0 0 Z " fill="#E3E9E9" transform="translate(579,747)"/>
<path d="M0 0 C6.49678438 -0.29530838 12.6221448 0.82706111 19 2 C15.5415057 4.18602942 13.45533873 4.05410732 9.5 3.25 C8.5615625 3.06953125 7.623125 2.8890625 6.65625 2.703125 C4.20260285 2.05363017 2.20983307 1.23000142 0 0 Z " fill="#E6EAED" transform="translate(456,654)"/>
<path d="M0 0 C1.43739513 -0.02712066 2.87493863 -0.04645067 4.3125 -0.0625 C5.51326172 -0.07990234 5.51326172 -0.07990234 6.73828125 -0.09765625 C9 0 9 0 12 1 C12 1.66 12 2.32 12 3 C13.32 3.33 14.64 3.66 16 4 C10.39538469 3.57910004 5.27913453 3.08386889 0 1 C0 0.67 0 0.34 0 0 Z " fill="#0A2952" transform="translate(514,655)"/>
<path d="M0 0 C2 2 2 2 2.1953125 4.8203125 C2.16050781 6.45613281 2.16050781 6.45613281 2.125 8.125 C2.10695313 9.22070312 2.08890625 10.31640625 2.0703125 11.4453125 C2.04710937 12.28835938 2.02390625 13.13140625 2 14 C1.01 13.67 0.02 13.34 -1 13 C-1.02686553 11.02090602 -1.04633375 9.04171029 -1.0625 7.0625 C-1.07410156 5.96035156 -1.08570313 4.85820312 -1.09765625 3.72265625 C-1 1 -1 1 0 0 Z " fill="#ECEEEC" transform="translate(478,486)"/>
<path d="M0 0 C1.90845703 0.17982422 1.90845703 0.17982422 3.85546875 0.36328125 C4.83128906 0.47027344 5.80710937 0.57726562 6.8125 0.6875 C6.8125 1.0175 6.8125 1.3475 6.8125 1.6875 C2.97525828 2.59163673 -0.56252274 2.79326898 -4.5 2.75 C-5.56863281 2.74097656 -6.63726562 2.73195313 -7.73828125 2.72265625 C-8.54652344 2.71105469 -9.35476563 2.69945312 -10.1875 2.6875 C-7.437571 -1.28916313 -4.46891372 -0.45099129 0 0 Z " fill="#0B436B" transform="translate(341.1875,726.3125)"/>
<path d="M0 0 C0 0.66 0 1.32 0 2 C-0.92232422 2.03867187 -0.92232422 2.03867187 -1.86328125 2.078125 C-6.99254591 2.2814648 -6.99254591 2.2814648 -11.0625 5.0625 C-11.5265625 6.0215625 -11.5265625 6.0215625 -12 7 C-12.66 5.02 -13.32 3.04 -14 1 C-4.58997722 -0.14806378 -4.58997722 -0.14806378 0 0 Z " fill="#E9EDEF" transform="translate(341,700)"/>
<path d="M0 0 C-0.33 0.99 -0.66 1.98 -1 3 C-4.0625 4.1875 -4.0625 4.1875 -7 5 C-7.33 7.64 -7.66 10.28 -8 13 C-8.33 13 -8.66 13 -9 13 C-9.05422947 11.5629191 -9.09289723 10.12524538 -9.125 8.6875 C-9.14820313 7.88699219 -9.17140625 7.08648438 -9.1953125 6.26171875 C-9 4 -9 4 -7 1 C-4.50335747 0.11409459 -2.67884659 0 0 0 Z " fill="#E3E7E7" transform="translate(325,654)"/>
<path d="M0 0 C7.50769231 0.61538462 7.50769231 0.61538462 10 2.5625 C10.33 3.036875 10.66 3.51125 11 4 C9.68 4 8.36 4 7 4 C6.67 4.66 6.34 5.32 6 6 C6 5.34 6 4.68 6 4 C4.68 4 3.36 4 2 4 C2 3.01 2 2.02 2 1 C1.34 0.67 0.68 0.34 0 0 Z " fill="#042E58" transform="translate(472,659)"/>
<path d="M0 0 C0 0.99 0 1.98 0 3 C-4.72383963 3.65156409 -9.21974517 4.11950637 -14 4 C-11.17991324 2.11994216 -9.65676336 1.54324907 -6.4375 0.875 C-5.65246094 0.70742188 -4.86742187 0.53984375 -4.05859375 0.3671875 C-2 0 -2 0 0 0 Z " fill="#E6ECEE" transform="translate(392,637)"/>
<path d="M0 0 C2.90025094 1.45012547 3.08706855 3.31312909 4.1875 6.3125 C4.55230469 7.27800781 4.91710937 8.24351562 5.29296875 9.23828125 C6.008904 12.0347797 5.99249531 13.33859538 5 16 C4.32942113 14.2097939 3.6636531 12.41778511 3 10.625 C2.443125 9.12839844 2.443125 9.12839844 1.875 7.6015625 C1 5 1 5 1 3 C0.34 3 -0.32 3 -1 3 C-0.67 2.01 -0.34 1.02 0 0 Z " fill="#0E224C" transform="translate(775,600)"/>
<path d="M0 0 C0.66 1.32 1.32 2.64 2 4 C1.125 6.5625 1.125 6.5625 0 9 C0 9.99 0 10.98 0 12 C-0.99 11.67 -1.98 11.34 -3 11 C-2.01 7.37 -1.02 3.74 0 0 Z " fill="#E6EBEC" transform="translate(587,418)"/>
<path d="M0 0 C1.65 1.65 3.3 3.3 5 5 C4.67 5.99 4.34 6.98 4 8 C3.34 7.34 2.68 6.68 2 6 C1.01 6.99 0.02 7.98 -1 9 C-0.67 6.03 -0.34 3.06 0 0 Z " fill="#11365E" transform="translate(619,291)"/>
<path d="M0 0 C0.33 0 0.66 0 1 0 C1 3.3 1 6.6 1 10 C-1.64 10.33 -4.28 10.66 -7 11 C-7 10.34 -7 9.68 -7 9 C-5.02 8.34 -3.04 7.68 -1 7 C-0.67 4.69 -0.34 2.38 0 0 Z " fill="#D7E3E8" transform="translate(390,232)"/>
<path d="M0 0 C2.5654594 2.5654594 2.54046087 4.47686668 3 8 C1.68 8.99 0.36 9.98 -1 11 C-0.67 7.37 -0.34 3.74 0 0 Z " fill="#05224D" transform="translate(803,757)"/>
<path d="M0 0 C0.33 0.99 0.66 1.98 1 3 C0.21625 3.45375 -0.5675 3.9075 -1.375 4.375 C-4.03698031 5.88428742 -4.03698031 5.88428742 -6 8 C-6.66 7.34 -7.32 6.68 -8 6 C-5.36 4.02 -2.72 2.04 0 0 Z " fill="#03254F" transform="translate(228,473)"/>
<path d="M0 0 C-0.33 0.66 -0.66 1.32 -1 2 C-4.63 2 -8.26 2 -12 2 C-4.86956522 -1.56521739 -4.86956522 -1.56521739 0 0 Z " fill="#E6EBEE" transform="translate(602,463)"/>
<path d="M0 0 C0.66 0.33 1.32 0.66 2 1 C0.02 1.99 0.02 1.99 -2 3 C-2 3.99 -2 4.98 -2 6 C-4.31 6.66 -6.62 7.32 -9 8 C-6.14723863 5.06799526 -3.34920216 2.35684596 0 0 Z " fill="#09204A" transform="translate(249,458)"/>
<path d="M0 0 C4.19360449 0.67097672 7.40334352 2.8558394 11 5 C10.67 5.66 10.34 6.32 10 7 C8.824375 6.505 8.824375 6.505 7.625 6 C5.15667503 4.88133489 5.15667503 4.88133489 3 5 C2.67 4.01 2.34 3.02 2 2 C1.34 1.34 0.68 0.68 0 0 Z " fill="#061E48" transform="translate(523,565)"/>
<path d="M0 0 C0.99 0 1.98 0 3 0 C2.01 2.97 1.02 5.94 0 9 C-2 5 -2 5 -1.125 2.25 C-0.75375 1.5075 -0.3825 0.765 0 0 Z " fill="#E9ECED" transform="translate(644,327)"/>
<path d="M0 0 C4.99911924 0.47610659 7.97832683 2.03162219 12 5 C10 6 10 6 7.9375 5.6875 C6 5 6 5 5 3 C3.35636866 2.27840576 1.68949614 1.60648579 0 1 C0 0.67 0 0.34 0 0 Z " fill="#0C224C" transform="translate(466,184)"/>
<path d="M0 0 C-2.62111184 1.40416706 -5.03163146 2.6169847 -8 3 C-8.99 2.34 -9.98 1.68 -11 1 C-3.375 -1.125 -3.375 -1.125 0 0 Z " fill="#E5EDEF" transform="translate(365,645)"/>
<path d="M0 0 C-2.33214148 1.20628008 -4.49642139 2.1654738 -7 3 C-9.1875 2.0625 -9.1875 2.0625 -11 1 C-3.375 -1.125 -3.375 -1.125 0 0 Z " fill="#D7E0E6" transform="translate(337,652)"/>
<path d="M0 0 C0 0.66 0 1.32 0 2 C-1.32 2 -2.64 2 -4 2 C-4 2.66 -4 3.32 -4 4 C-6.97 3.505 -6.97 3.505 -10 3 C-6.71687741 1.24118433 -3.76143005 0 0 0 Z " fill="#E8EEF0" transform="translate(376,641)"/>
<path d="M0 0 C-3.63423209 2.32590854 -6.77088331 2.16265833 -11 2 C-7.00042393 -0.06874624 -4.43559483 -1.37656391 0 0 Z " fill="#E7EDF0" transform="translate(412,633)"/>
<path d="M0 0 C0.66 0 1.32 0 2 0 C2.66 2.31 3.32 4.62 4 7 C3.01 7 2.02 7 1 7 C0.67 4.69 0.34 2.38 0 0 Z " fill="#E7ECED" transform="translate(765,617)"/>
<path d="M0 0 C0.66 0.33 1.32 0.66 2 1 C0.68 3.64 -0.64 6.28 -2 9 C-2.66 8.34 -3.32 7.68 -4 7 C-3.68134222 3.70720291 -2.45484649 2.13464912 0 0 Z " fill="#E3E9EC" transform="translate(608,398)"/>
<path d="M0 0 C0.33 1.32 0.66 2.64 1 4 C-0.65 4.33 -2.3 4.66 -4 5 C-4.33 4.34 -4.66 3.68 -5 3 C-3.35 2.01 -1.7 1.02 0 0 Z " fill="#E3E9EA" transform="translate(468,363)"/>
<path d="M0 0 C0.99 0.33 1.98 0.66 3 1 C2.67 4.63 2.34 8.26 2 12 C1.67 12 1.34 12 1 12 C0.67 8.04 0.34 4.08 0 0 Z " fill="#093F6B" transform="translate(489,212)"/>
<path d="M0 0 C0.33 0.66 0.66 1.32 1 2 C-0.98 4.97 -0.98 4.97 -3 8 C-3.66 6.68 -4.32 5.36 -5 4 C-4.34 3.34 -3.68 2.68 -3 2 C-2.34 2.33 -1.68 2.66 -1 3 C-0.67 2.01 -0.34 1.02 0 0 Z " fill="#05224B" transform="translate(614,366)"/>
<path d="M0 0 C1.32 0.66 2.64 1.32 4 2 C3.67 3.65 3.34 5.3 3 7 C1.68 6.34 0.36 5.68 -1 5 C-0.67 3.35 -0.34 1.7 0 0 Z " fill="#063F68" transform="translate(507,233)"/>
</svg>
